<svg xmlns="http://www.w3.org/2000/svg" width="411" height="368" viewBox="0 0 411 368">
    <g fill="none" fill-rule="evenodd">
        <g>
            <g transform="translate(-895 -1612) translate(895 1612)">
                <path fill="#FFF" fill-rule="nonzero" d="M154.996 63.918c-22.064 4.093-44.663 4.86-66.772 8.791-29.88 5.312-58.497 14.164-74.61 42.055-15.7 27.183-18.589 63.147-4.628 91.558 10.128 20.603 26.096 40.202 45.488 52.434 24.847 15.672 52.1 27.503 80.5 34.946 30.898 8.1 63.927 11.356 91.141 28.111 14.258 8.775 26.23 20.893 40.411 29.793 30.287 19.006 71.1 21.236 101.906 3.09 30.806-18.145 48.905-56.944 40.37-91.728-5.368-21.886-19.83-40.364-27.89-61.406-6.905-18.012-8.962-37.866-5.903-56.92 3.151-19.64 11.44-38.186 13.483-58.029 1.71-16.617-4.204-37.795-13.393-51.786C356.39 6.34 322.245-3.818 290.077 1.252c-24.3 3.832-48.244 16.08-68.529 29.666-9.64 6.452-17.075 15.028-27.75 20.483-10.965 5.605-22.856 9.288-34.887 11.752-1.304.268-2.608.523-3.915.765"/>
                <g>
                    <path fill="#F4FAFD" d="M101.894 220.426c-.352 0 .288-5.338.777-9.06h-8.425c-2.632 0-4.766-2.134-4.766-4.766v-33.804c0-2.632 2.134-4.766 4.766-4.766h81.135c2.632 0 4.766 2.134 4.766 4.766V206.6c0 2.632-2.134 4.766-4.766 4.766h-66.553c-2.472 3.444-6.56 9.06-6.934 9.06" transform="translate(40 20)"/>
                    <path fill="#FEB546" d="M179.26 159.044H98.124c-2.633 0-4.767 2.134-4.767 4.767v33.803c0 2.634 2.134 4.768 4.767 4.768h8.425c-.489 3.72-1.129 9.058-.778 9.058.374 0 4.463-5.614 6.935-9.058h66.552c2.633 0 4.767-2.134 4.767-4.768v-33.803c0-2.633-2.134-4.767-4.767-4.767" transform="translate(40 20)"/>
                    <path fill="#FFF" d="M177.023 174.45c0 .136-11.647.247-26.01.247-14.37 0-26.013-.111-26.013-.247 0-.137 11.644-.247 26.013-.247 14.363 0 26.01.11 26.01.247M177.023 180.412c0 .136-11.647.246-26.01.246-14.37 0-26.013-.11-26.013-.246s11.644-.247 26.013-.247c14.363 0 26.01.11 26.01.247M146.722 185.947c0 .136-4.863.246-10.86.246-6 0-10.862-.11-10.862-.246s4.862-.247 10.862-.247c5.997 0 10.86.11 10.86.247M121.016 180.832c0 6.6-5.35 11.95-11.95 11.95s-11.95-5.35-11.95-11.95c0-6.598 5.35-11.949 11.95-11.949s11.95 5.351 11.95 11.949" transform="translate(40 20)"/>
                    <path fill="#FFC0BB" d="M107.449 190.358L110.957 190.358 110.957 186.854 107.449 186.854z" transform="translate(40 20)"/>
                    <path fill="#F99893" d="M110.957 188.954v-2.1h-3.508v1.786c.755.406 1.874.64 3.508.314" transform="translate(40 20)"/>
                    <path fill="#FFBE9A" d="M116.49 180.584c-.366-.18-.791-.148-1.176.046.132-3.456-2.691-6.364-6.247-6.242-3.557-.122-6.38 2.786-6.248 6.242-.385-.194-.81-.226-1.176-.046-.702.346-.92 1.336-.487 2.214.433.876 1.353 1.306 2.056.96.097-.048.184-.11.263-.18.402 2.858 2.79 5 5.592 4.96 2.801.04 5.189-2.102 5.591-4.96.079.07.166.132.263.18.703.346 1.623-.084 2.057-.96.433-.878.214-1.868-.488-2.214" transform="translate(40 20)"/>
                    <path fill="#07085B" d="M104.794 173.018s1.76-1.49 5.763-1.248c4.003.24 4.765 2.328 4.991 5.312l-.234 3.548s-1.039-1.068-2.392-4.03c0 0-2.241 2.514-3.217 2.216-.976-.298.369-2.108.369-2.108s-4.566 3.928-7.255 3.922c0 0-1.423-4.598.574-6.284 0 0-1.504.072-1.584-.224-.08-.296.718-.74 2.164-.572 0 0-1.03-2.016-.455-2.226.576-.21 1.276 1.694 1.276 1.694" transform="translate(40 20)"/>
                    <path fill="#FFF" d="M111.362 184.666c-.154.694-.947 1.238-1.92 1.268-.972.03-1.797-.466-1.993-1.148l3.913-.12" transform="translate(40 20)"/>
                    <path fill="#07085B" d="M218.796 116.235l2.956 18.54 6.246-24.719s-8.752-4.248-9.14-2.703c-.386 1.545-.062 8.882-.062 8.882" transform="translate(40 20)"/>
                    <path fill="#FFBE9A" d="M268.482 156.139L271.184 188.19 242.9 186.84 246.162 158.456 268.482 156.139" transform="translate(40 20)"/>
                    <path fill="#ED996A" d="M244.61 171.954l1.552-13.498 22.32-2.317.936 11.1c-4.438 4.421-12.418 9.005-24.808 4.715" transform="translate(40 20)"/>
                    <path fill="#FFBE9A" d="M227.268 134.543c1.702 3.517.798 7.471-2.014 8.832-2.814 1.36-6.474-.388-8.174-3.905-1.702-3.517-.8-7.472 2.014-8.832 2.814-1.36 6.474.388 8.174 3.905" transform="translate(40 20)"/>
                    <path fill="#FFBE9A" d="M227.064 150.805c-2.024-4.535-3.208-9.411-3.9-13.686-.148-.917-.348-1.823-.566-2.727-.88-3.647-1.114-7.558-.504-11.634 1.966-13.115 12.518-23.57 25.654-25.387 17.698-2.446 33.286 10.657 34.388 28.011 1.82-1.168 3.924-1.544 5.842-.83 3.68 1.373 5.274 6.214 3.56 10.815-1.716 4.6-6.09 7.218-9.77 5.846-.51-.19-.976-.453-1.404-.768-.568 14.862-11.946 27.028-26.472 27.709-7.104.332-13.714-2.144-18.844-6.482-3.288-2.415-6.39-7.115-7.984-10.867" transform="translate(40 20)"/>
                    <path fill="#07085B" d="M245.196 127.428c-.058 1.732-.072 3.422-.162 5.077-.102 1.531-.27 3.733-1.224 4.9-.14.2-.89 1.009-.908 2.238-.038 1.146.566 2.17 1.32 2.798 1.544 1.298 3.544 1.422 5.2 1.013-1.69-.298-3.308-.879-4.252-1.983-.436-.548-.726-1.161-.624-1.735.074-.66.442-1.004.574-1.204.47-.622 1.036-1.27 1.276-3.386.086-.909.072-1.79-.01-2.665-.168-1.74-.54-3.44-1.19-5.053" transform="translate(40 20)"/>
                    <path fill="#333" d="M255.22 129.717c.068 1.455 1.304 2.58 2.76 2.511 1.454-.068 2.58-1.303 2.512-2.758-.07-1.455-1.304-2.58-2.76-2.512-1.454.068-2.58 1.303-2.512 2.759M232.66 132.26c.068 1.456 1.304 2.58 2.76 2.512 1.454-.068 2.58-1.303 2.51-2.758-.068-1.456-1.302-2.58-2.758-2.512-1.456.068-2.58 1.303-2.512 2.758" transform="translate(40 20)"/>
                    <path fill="#07085B" d="M259.646 147.578c-2.686 2.34-6.18 4.169-9.648 4.589-3.752.473-7.066-.671-10.26-2.638 2.974 2.498 6.418 3.764 10.344 3.325 3.824-.498 7.398-2.701 9.564-5.276M251.91 123.76c3.716-1.15 5.822-1.214 7.52-1.007 3.708.497 5.794 2.137 7.088 2.705-1.56-2.875-3.956-4.407-6.854-4.769-3.138-.377-6.208 1.041-7.754 3.07M240.288 125.068c-1.906-1.684-5.19-2.488-8.204-1.506-2.762.914-4.822 2.878-5.798 6.009 1.164-.81 2.886-2.82 6.428-4.03 1.622-.531 3.696-.879 7.574-.473" transform="translate(40 20)"/>
                    <path fill="#E0565F" d="M206.364 184.282c-6.76 5.492-39.292 86.188-39.292 86.188l27.04 31.688 57.46.422s12.502 0 61.392-13.394c6.206-16.426 7.802-85.714 6.206-100.258-1.596-14.544-43.516-16.054-43.516-16.054s-25.35 17.744-35.912 2.534c0 0-26.618 3.38-33.378 8.874z" transform="translate(40 20)"/>
                    <path fill="#FFF" d="M291.286 215.546c-.952 4.398-1.534 8.862-1.95 13.34-.228 2.24-.328 4.488-.456 6.736-.068 2.25-.12 4.502-.09 6.756.088 4.506.336 9.026 1.11 13.486.756 4.444 1.856 8.902 3.922 12.916-1.39-4.282-2.08-8.684-2.578-13.098-.49-4.418-.66-8.874-.718-13.326-.092-4.456.018-8.918.158-13.386.16-4.466.364-8.936.602-13.424M211.646 212.588c-1.216 6.546-2.504 13.066-3.814 19.576-1.336 6.504-2.718 12.996-4.292 19.436-1.558 6.442-3.286 12.844-5.38 19.118-1.046 3.138-2.218 6.232-3.59 9.236-1.352 3.01-2.956 5.924-5.106 8.472 2.446-2.282 4.244-5.176 5.87-8.092 1.574-2.958 2.934-6.026 4.104-9.158 1.196-3.122 2.22-6.306 3.194-9.5.936-3.204 1.794-6.428 2.594-9.666.764-3.248 1.496-6.5 2.154-9.768.634-3.272 1.258-6.544 1.782-9.834 1.088-6.572 1.932-13.182 2.484-19.82" transform="translate(40 20)"/>
                    <path fill="#FFBE9A" d="M198.27 283.894c.17-1.336 10.324-2.83 14.056-3.024 2.828-.146 21.574-.772 27.95-1.06l-.468 1.64.098 7.24 1.046 4.8c-5.594.352-19.27.888-22.118 1.452-3.804.752-10.402 3.62-10.402 3.62s-2.744-.624.744-2.128c2.8-1.208 4.764-3.082 5.596-4.01.478-.536-.04-1.488-.388-1.398-9.494 2.488-10.472 2.9-10.472 2.9s-11.158-.062-.062-2.57c6.65-1.504 9.034-2.378 9.626-3.124.252-.318-.198-1.398-.602-1.424-5.764-.356-16.106 1.686-13.272.348 2.31-1.094 9.586-2.29 12.414-2.742.174-.028.456-1.082-.318-1.146-5.488-.458-13.586 1.87-13.428.626" transform="translate(40 20)"/>
                    <path fill="#FFF" d="M290.794 269.384c-2.33.554-4.694.96-7.034 1.452-4.71.86-9.434 1.608-14.174 2.272-4.744.624-9.494 1.196-14.258 1.656-4.744.472-9.57.876-14.266 1.138l-.632.034-.138.548c-.404 1.592-.668 3.146-.868 4.738-.198 1.586-.282 3.186-.28 4.786.014 1.602.152 3.206.416 4.79.292 1.584.76 3.136 1.39 4.622l.054.128.104.068 5.218 3.502c1.738 1.168 3.484 2.326 5.246 3.462-1.636-1.31-3.288-2.598-4.948-3.878l-4.854-3.746c-.502-1.404-.86-2.856-1.056-4.338-.184-1.522-.27-3.058-.224-4.596.052-1.538.204-3.074.418-4.6.196-1.324.454-2.66.78-3.938 2.252-.074 4.41-.22 6.622-.382 2.398-.176 4.798-.366 7.19-.618 4.784-.496 9.56-1.092 14.312-1.852 4.752-.766 9.478-1.694 14.162-2.8 2.332-.596 4.668-1.17 6.964-1.896 2.316-.65 4.584-1.46 6.844-2.264-2.336.568-4.64 1.22-6.988 1.712" transform="translate(40 20)"/>
                    <path fill="#E6E6E6" d="M86.857 230.122h90.555c2.778 0 5.28 1.68 6.333 4.25l27.729 67.68h50.066c1.4 0 2.534 1.136 2.534 2.536 0 1.4-1.134 2.534-2.534 2.534H116.996c-2.67 0-5.09-1.568-6.183-4.004L81.666 238.14c-1.688-3.764 1.066-8.018 5.19-8.018" transform="translate(40 20)"/>
                    <path fill="#000" d="M218.23 98.694s-8.874.286.438-7.218c9.312-7.503 34.314-16.302 50.34-7.84 0 0 3.204-6.813 7.836-5.186 4.632 1.627-3.012 6.314-3.012 6.314s5.916-.191 7.72 2.711c1.336 2.145-2.288 2.24-4.268 2.143 3.368.572 16.278 8.726 9.798 34.758-2.302-.507-15.426-19.537-15.426-19.537s-30.014 16.674-27.046 3.415c0 0-31.092 19.404-26.682 3.376 0 0-12.022.88.302-12.936" transform="translate(40 20)"/>
                    <path fill="#000" d="M287.108 124.532s-2.486-.873-5.158 1.248c-2.674 2.121-2.378 9.574-2.378 9.574s-12.758 8.227-11.412-26.585c1.43-37.035 10.642 2.97 10.642 2.97l8.306 12.793" transform="translate(40 20)"/>
                    <path fill="#F4FAFD" d="M105.883 152.795c-.473 0-5.842-7.399-8.803-11.53H23.92c-3.21 0-5.812-2.603-5.812-5.813V97.104c0-3.21 2.602-5.812 5.812-5.812h92.926c3.21 0 5.812 2.602 5.812 5.812v38.348c0 3.21-2.602 5.812-5.812 5.812H104.87c.602 4.542 1.456 11.531 1.012 11.531" transform="translate(40 20)"/>
                    <path fill="#E0565F" d="M113.009 81.345H20.083c-3.21 0-5.812 2.602-5.812 5.812v38.348c0 3.21 2.602 5.812 5.812 5.812h73.16c2.961 4.132 8.33 11.53 8.804 11.53.443 0-.41-6.988-1.013-11.53h11.975c3.21 0 5.812-2.602 5.812-5.812V87.157c0-3.21-2.602-5.812-5.812-5.812" transform="translate(40 20)"/>
                    <path fill="#FFF" d="M108.023 99.45c0 .136-11.647.247-26.01.247-14.37 0-26.013-.111-26.013-.247 0-.137 11.644-.247 26.013-.247 14.363 0 26.01.11 26.01.247M108.023 105.412c0 .136-11.647.246-26.01.246-14.37 0-26.013-.11-26.013-.246s11.644-.247 26.013-.247c14.363 0 26.01.11 26.01.247M77.722 110.947c0 .136-4.863.246-10.86.246-6 0-10.862-.11-10.862-.246s4.862-.247 10.862-.247c5.997 0 10.86.11 10.86.247M48.785 106.33c0 8.048-6.523 14.57-14.57 14.57-8.046 0-14.57-6.522-14.57-14.57 0-8.046 6.524-14.57 14.57-14.57 8.047 0 14.57 6.524 14.57 14.57" transform="translate(40 20)"/>
                    <path fill="#040744" d="M26.631 106.714s-1.445-5.929 1.997-8.15c3.442-2.22 7.117-2.728 9.629-1.448 3.48 1.773 4.911 6.564 3.797 9.215l-9.24-2.321-6.183 2.704" transform="translate(40 20)"/>
                    <path fill="#FFC0BB" d="M32.243 117.944L36.521 117.944 36.521 113.672 32.243 113.672z" transform="translate(40 20)"/>
                    <path fill="#F99893" d="M36.52 116.233v-2.56h-4.277v2.178c.92.494 2.285.778 4.278.382" transform="translate(40 20)"/>
                    <path fill="#FFBE9A" d="M43.267 106.027c-.447-.22-.965-.18-1.434.057.161-4.215-3.282-7.76-7.618-7.61-4.336-.15-7.778 3.395-7.617 7.61-.47-.238-.987-.277-1.434-.057-.856.422-1.122 1.63-.594 2.699.528 1.069 1.65 1.593 2.506 1.171.12-.058.226-.133.321-.22.491 3.485 3.402 6.097 6.818 6.048 3.416.049 6.328-2.563 6.818-6.048.096.087.202.162.321.22.857.422 1.979-.102 2.507-1.171s.262-2.277-.594-2.7" transform="translate(40 20)"/>
                    <path fill="#FFF" d="M37.015 111.006c-.188.844-1.156 1.509-2.341 1.545-1.186.036-2.192-.568-2.431-1.4l4.772-.145" transform="translate(40 20)"/>
                    <path fill="#040744" d="M26.598 106.084s5.599-1.697 8.05-4.529c0 0-.694 3.412-1.212 3.957.164.109 5.592-2.53 6.33-4.966.737-2.436-5.55-3.311-5.55-3.311s-2.155.917-2.264.971c-.11.055-2.13.29-2.362.806-.302.67-1.729.73-1.729.73l-.9 1.875-.63 1.972.267 2.495" transform="translate(40 20)"/>
                    <path fill="#040744" d="M22.011 98.37c1.237.499 2.665.729 4.146.274 3.267-1.004 4.562-.615 4.996-.368.261.148.572.206.857.111.323-.107.622-.399.529-1.135 0 0 .129-3.105-2.532-4.873-3.32 1-6.14 3.152-7.996 5.992" transform="translate(40 20)"/>
                    <path fill="#FEB546" d="M29.041 98.167v-.001c-.097-.128-.067-.31.067-.399.546-.358 1.95-1.166 3.635-1.252.159-.008.291.119.291.277 0 .148-.116.268-.263.276-1.54.08-2.862.84-3.36 1.164-.12.079-.282.05-.37-.065" transform="translate(40 20)"/>
                    <path fill="#FFF" d="M150.013 267.6c.892 4.23-.892 8.188-3.984 8.84-3.093.652-6.323-2.248-7.215-6.478-.892-4.23.892-8.188 3.984-8.84 3.093-.652 6.323 2.248 7.215 6.478" transform="translate(40 20)"/>
                    <path fill="#C12F56" d="M107.095 39.548l1.937 14.597-10.368-7.572-31.735-16.212 24.547 2.247s12.504 3.038 13.181 3.65c.677.613 2.438 3.29 2.438 3.29" transform="translate(40 20)"/>
                    <path fill="#FFACAA" d="M117.964 30.734L66.929 30.361 107.095 39.548 117.964 30.734M90.689 54.233L104.062 43.492 66.929 30.361 90.689 54.233" transform="translate(40 20)"/>
                    <path fill="#FEB546" d="M170.214 118.44l-.674-.995c1.032-.698 1.977-1.553 2.81-2.543l.919.774c-.904 1.074-1.932 2.004-3.055 2.764" transform="translate(40 20)"/>
                    <path fill="#FFACAA" d="M133.833 55.02c-1.639-1.919-3.556-3.587-5.698-4.957l.647-1.013c2.243 1.435 4.25 3.18 5.965 5.19l-.914.78zm15.172 4.865c-2.179-.665-3.909-1.07-4.747-1.11-.96-.045-1.84-.055-2.686-.03l-.036-1.2c.878-.027 1.787-.017 2.78.03 1.277.06 3.706.754 5.04 1.161l-.35 1.15zm-19.938 5.39l-1.085-.519c1.09-2.277 3.136-4.272 5.615-5.473l.166-.08.51 1.089-.152.072c-2.238 1.085-4.08 2.875-5.054 4.91zm10.565 3.698l-1.176-.247c.155-.74.234-1.495.236-2.244.003-1.055-.132-2.145-.402-3.238-.146-.594-.335-1.2-.56-1.8l1.124-.423c.242.645.445 1.296.603 1.935.293 1.189.44 2.376.437 3.529-.002.83-.09 1.668-.262 2.488zm22.516-1.588c-1.913-1.628-3.983-3.174-6.155-4.594l.658-1.006c2.214 1.448 4.325 3.024 6.276 4.685l-.779.915zm-27.517 8.659c-.819.201-2.903.247-4.241-.55-1.001-.597-1.834-1.533-2.409-2.71l1.08-.527c.479.98 1.133 1.72 1.944 2.204.965.576 2.686.577 3.338.416.087-.022.12-.038.12-.038l.172-.112.667 1-.208.134c-.118.075-.27.135-.463.183zm37.55 2.843c-1.285-2.099-2.818-4.164-4.556-6.138l.902-.795c1.784 2.026 3.358 4.148 4.679 6.305l-1.025.628zm6.165 14.153l-1.196.122c-.034-.33-.072-.66-.116-.988-.148-1.119-.362-2.249-.636-3.359-.253-1.023-.562-2.054-.919-3.063l1.133-.401c.37 1.046.691 2.115.953 3.176.284 1.153.506 2.326.66 3.488.045.332.085.677.12 1.025zm-1.38 15.605l-1.146-.36c.696-2.217 1.156-4.734 1.368-7.481l1.198.092c-.218 2.838-.696 5.445-1.42 7.75zM121.24 46.984c-1.263-.347-2.54-.588-3.794-.715l.121-1.196c1.32.134 2.664.387 3.992.753l-.318 1.158" transform="translate(40 20)"/>
                    <path fill="#FF5B7E" d="M66.1 216.924s-.442 4.36-3.884 4.662c3.442.302 3.884 4.664 3.884 4.664s.442-4.362 3.884-4.664c-3.442-.302-3.884-4.662-3.884-4.662" transform="translate(40 20)"/>
                    <path fill="#C3C3C3" d="M195.66 154.755s-.704 6.944-6.184 7.425c5.48.48 6.184 7.424 6.184 7.424s.704-6.944 6.184-7.424c-5.48-.48-6.184-7.425-6.184-7.425M6.207 70.873s-.705 6.944-6.185 7.424c5.48.481 6.185 7.425 6.185 7.425s.704-6.944 6.184-7.425c-5.48-.48-6.184-7.424-6.184-7.424" transform="translate(40 20)"/>
                    <path fill="#FEB546" d="M138.702 128.961s-.537 6.153-4.716 6.579c4.18.425 4.716 6.578 4.716 6.578s.538-6.153 4.717-6.578c-4.18-.426-4.717-6.579-4.717-6.579M30.273 39.01s-.537 6.153-4.716 6.579c4.179.425 4.716 6.578 4.716 6.578s.537-6.153 4.716-6.578c-4.179-.426-4.716-6.579-4.716-6.579" transform="translate(40 20)"/>
                    <path fill="#FFDBDA" d="M346.226 11.141c0 6.075-5.373 11-12 11s-12-4.925-12-11 5.373-11 12-11 12 4.925 12 11M337.54 77.217c0 2.587-2.328 4.685-5.198 4.685-2.872 0-5.2-2.098-5.2-4.685 0-2.588 2.328-4.686 5.2-4.686 2.87 0 5.198 2.098 5.198 4.686" transform="translate(40 20)"/>
                </g>
                <rect width="264" height="6" x="100" y="328" fill="#CACACA" rx="3"/>
            </g>
        </g>
    </g>
</svg>
